<?xml version="1.0" encoding="utf-8"?>
<!-- Generator: Adobe Illustrator 22.1.0, SVG Export Plug-In . SVG Version: 6.00 Build 0)  -->
<svg version="1.0" id="Ebene_1" xmlns="http://www.w3.org/2000/svg" xmlns:xlink="http://www.w3.org/1999/xlink" x="0px" y="0px"
	 viewBox="0 0 228 59" style="enable-background:new 0 0 228 59;" xml:space="preserve">
<style type="text/css">
	.st0{fill:#F0DC1E;}
	.st1{fill:#FFFFFF;}
</style>
<polygon class="st0" points="0,0 0,58.5 19.5,49.4 39,58.5 39,0 "/>
<g>
	<path class="st0" d="M135.7,21.9c2,0,4.5-0.1,4.5-2.8c0-2.6-2.2-2.8-4.2-2.8h-2.6v5.7H135.7z M133.4,38.7h-9.1V9.6h11.9
		c2.8,0,6,0.1,8.5,1.5c2.7,1.6,4.3,4.5,4.3,7.7c0,2.8-1.1,5.4-3.2,7.1c-2.2,1.8-5.1,2.3-7.9,2.3h-4.5V38.7z"/>
</g>
<path class="st0" d="M162.4,26.6l-2.4-8.5l-2.4,8.5H162.4z M164,33h-7.8l-1.8,5.7h-7.3l9.1-29.2h9.4l9.1,29.2h-9.1L164,33z"/>
<g>
	<path class="st0" d="M202.1,38.7h-4.4l-1.2-3.1c-1.8,2.5-4.9,3.5-7.9,3.5c-8.5,0-13-6.5-13-14.5c0-3.8,1-7.8,3.4-10.8
		c2.8-3.5,6.3-4.6,10.6-4.6c6.8,0,11.3,3.4,12.5,10.1l-8.7,0.9c-0.3-2.3-1.3-4.5-4-4.5c-4.1,0-4.4,5.5-4.4,8.5
		c0,1.7,0.1,3.8,0.8,5.4c0.7,1.7,2.1,2.8,4,2.8c2.3,0,4-1.4,4-3.7h-4.8v-6.2h13.1V38.7z"/>
</g>
<polygon class="st0" points="206.1,9.6 206.1,38.7 228,38.7 228,31.8 214.9,31.8 214.9,27.1 225.5,27.1 225.5,20.6 214.9,20.6 
	214.9,16.3 228,16.3 228,9.6 "/>
<polygon class="st1" points="31.8,38.7 22.9,38.7 22.9,27.4 16,27.4 16,38.7 7.1,38.7 7.1,9.6 16,9.6 16,20.3 22.9,20.3 22.9,9.6 
	31.8,9.6 "/>
<g>
	<path class="st1" d="M44.8,24.3c0,2.8,0.3,8.2,4.4,8.2c4.1,0,4.4-5.4,4.4-8.2c0-2.8-0.4-8.5-4.4-8.5C45.2,15.8,44.8,21.5,44.8,24.3
		 M63.1,24.3c0,8.3-5.1,14.9-13.9,14.9c-8.8,0-13.9-6.6-13.9-14.9c0-8.7,5.1-15.1,13.9-15.1C58,9.2,63.1,15.5,63.1,24.3"/>
	<path class="st1" d="M91.8,38.7h-4.4l-1.2-3.1c-1.8,2.5-4.9,3.5-7.9,3.5c-8.5,0-13-6.5-13-14.5c0-3.8,1-7.8,3.4-10.8
		c2.8-3.5,6.3-4.6,10.6-4.6c6.8,0,11.3,3.4,12.5,10.1l-8.7,0.9c-0.3-2.3-1.3-4.5-4-4.5c-4.1,0-4.4,5.5-4.4,8.5
		c0,1.7,0.1,3.8,0.8,5.4c0.7,1.7,2.1,2.8,4,2.8c2.3,0,4-1.4,4-3.7h-4.8v-6.2h13.1V38.7z"/>
</g>
<path class="st1" d="M109.3,26.6l-2.4-8.5l-2.4,8.5H109.3z M110.9,33h-7.8l-1.8,5.7H94l9.1-29.2h9.4l9.1,29.2h-9.1L110.9,33z"/>
</svg>
