<?xml version="1.0" encoding="UTF-8" standalone="no"?>
<svg
   xmlns:dc="http://purl.org/dc/elements/1.1/"
   xmlns:cc="http://creativecommons.org/ns#"
   xmlns:rdf="http://www.w3.org/1999/02/22-rdf-syntax-ns#"
   xmlns:svg="http://www.w3.org/2000/svg"
   xmlns="http://www.w3.org/2000/svg"
   xmlns:sodipodi="http://sodipodi.sourceforge.net/DTD/sodipodi-0.dtd"
   xmlns:inkscape="http://www.inkscape.org/namespaces/inkscape"
   id="Ebene_1"
   data-name="Ebene 1"
   viewBox="0 0 995.11698 372.84761"
   version="1.1"
   sodipodi:docname="Logo_Hotel_weißer Hintergrund.svg"
   width="995.117"
   height="372.8476"
   inkscape:version="0.92.3 (2405546, 2018-03-11)">
  <metadata
     id="metadata26">
    <rdf:RDF>
      <cc:Work
         rdf:about="">
        <dc:format>image/svg+xml</dc:format>
        <dc:type
           rdf:resource="http://purl.org/dc/dcmitype/StillImage" />
        <dc:title>Logo_Hotel</dc:title>
      </cc:Work>
    </rdf:RDF>
  </metadata>
  <sodipodi:namedview
     pagecolor="#ffffff"
     bordercolor="#666666"
     borderopacity="1"
     objecttolerance="10"
     gridtolerance="10"
     guidetolerance="10"
     inkscape:pageopacity="0"
     inkscape:pageshadow="2"
     inkscape:window-width="1920"
     inkscape:window-height="1017"
     id="namedview24"
     showgrid="false"
     inkscape:zoom="1.0912485"
     inkscape:cx="427.31614"
     inkscape:cy="211.53349"
     inkscape:window-x="1912"
     inkscape:window-y="-8"
     inkscape:window-maximized="1"
     inkscape:current-layer="Ebene_1" />
  <defs
     id="defs4">
    <style
       id="style2">.cls-1{fill:#e6bfd9;isolation:isolate;}.cls-2{fill:#941b80;}</style>
  </defs>
  <title
     id="title6">Logo_Hotel</title>
  <rect
     style="fill:#ffffff;fill-opacity:1;stroke:none;stroke-width:1.53690028;stroke-miterlimit:4;stroke-dasharray:none;stroke-opacity:1"
     id="rect833"
     width="764.61597"
     height="189.85805"
     x="230.50104"
     y="131.08118"
     ry="0" />
  <path
     class="cls-1"
     d="m 351.11265,35.457602 a 52.75,52.75 0 0 1 10.2,-17.66 46.67,46.67 0 0 1 16.32,-11.8199997 53.36,53.36 0 0 1 21.79,-4.2799999 53.31,53.31 0 0 1 21.87,4.2799999 46.86,46.86 0 0 1 16.25,11.8199997 52.72,52.72 0 0 1 10.19,17.66 66,66 0 0 1 3.55,21.94 63.79,63.79 0 0 1 -3.55,21.49 51.25,51.25 0 0 1 -10.19,17.36 47,47 0 0 1 -16.25,11.599998 54.14,54.14 0 0 1 -21.87,4.21 54.19,54.19 0 0 1 -21.79,-4.21 46.77,46.77 0 0 1 -16.32,-11.599998 51.27,51.27 0 0 1 -10.2,-17.36 63.79,63.79 0 0 1 -3.54,-21.49 66,66 0 0 1 3.54,-21.94 z m 21.2,34.86 a 34.83,34.83 0 0 0 4.95,11.3 25.39,25.39 0 0 0 8.87,8.08 27,27 0 0 0 13.29,3 27.1,27.1 0 0 0 13.3,-3 25.36,25.36 0 0 0 8.86,-8.06 34.62,34.62 0 0 0 4.95,-11.3 53.82,53.82 0 0 0 1.55,-12.92 58,58 0 0 0 -1.55,-13.45 35.48,35.48 0 0 0 -4.95,-11.6 25.15,25.15 0 0 0 -8.86,-8.12 27.1,27.1 0 0 0 -13.3,-3 27,27 0 0 0 -13.29,3 25.18,25.18 0 0 0 -8.87,8.12 35.7,35.7 0 0 0 -4.95,11.6 58,58 0 0 0 -1.5,13.43 53.82,53.82 0 0 0 1.5,12.92 z"
     id="path10"
     inkscape:connector-curvature="0"
     style="isolation:isolate;fill:#e6bfd9" />
  <path
     class="cls-1"
     d="M 458.81265,23.757602 V 3.7576023 h 86 V 23.757602 h -31 V 109.7576 h -23 V 23.757602 Z"
     id="path12"
     inkscape:connector-curvature="0"
     style="isolation:isolate;fill:#e6bfd9" />
  <path
     class="cls-1"
     d="M 639.81265,4.7576023 V 23.757602 h -56 v 23 h 51 v 18 h -51 v 25 h 57 V 109.7576 h -81 V 4.7576023 Z"
     id="path14"
     inkscape:connector-curvature="0"
     style="isolation:isolate;fill:#e6bfd9" />
  <path
     class="cls-1"
     d="M 679.81265,4.7576023 V 89.757602 h 51 V 109.7576 h -75 V 4.7576023 Z"
     id="path16"
     inkscape:connector-curvature="0"
     style="isolation:isolate;fill:#e6bfd9" />
  <path
     id="Fill-1"
     class="cls-2"
     d="m 933.01265,159.9576 q -6.24,-26.5 -18.73,-45.18 a 87.12,87.12 0 0 0 -31.24,-28.819998 q -18.73,-10.14 -43.72,-10.15 a 91.67,91.67 0 0 0 -38.17,7.89 86.82,86.82 0 0 0 -29.62,21.669998 99.94,99.94 0 0 0 -19,32 112,112 0 0 0 -6.7,39 111.18,111.18 0 0 0 6.24,38.05 88.64,88.64 0 0 0 17.81,30 81.6,81.6 0 0 0 27.76,19.83 q 16.2,7.17 36.09,7.15 a 60,60 0 0 0 29.85,-7.38 61.08,61.08 0 0 0 21.05,-18.9 q -2.77,45.2 -14.34,64.09 -11.57,18.89 -34.24,18.91 -28.24,0 -30.08,-26.29 h -55.03 q 4.62,34.57 26.14,52.8 21.52,18.23 56.22,18.22 52.75,0 79.36,-36.2 26.61,-36.2 26.6,-117.82 0,-32.26 -6.25,-58.8 m -52.51,37.12 a 54.38,54.38 0 0 1 -8.79,16.14 42.57,42.57 0 0 1 -13.42,11.06 35.19,35.19 0 0 1 -16.66,4.15 33.34,33.34 0 0 1 -16.65,-4.15 44.3,44.3 0 0 1 -13,-11.06 50.17,50.17 0 0 1 -8.56,-16.37 65.62,65.62 0 0 1 -3,-20.06 80.48,80.48 0 0 1 2.76,-21.22 60.6,60.6 0 0 1 7.87,-17.75 41.1,41.1 0 0 1 12.5,-12.22 30.86,30.86 0 0 1 16.66,-4.61 33.33,33.33 0 0 1 17.12,4.61 48.67,48.67 0 0 1 13.88,12.44 59,59 0 0 1 9.25,18 71.22,71.22 0 0 1 3.27,21.59 58.34,58.34 0 0 1 -3.23,19.38 z m -378.38,109.24 c -45,0 -81.54,-36.71 -81.54,-81.83 0,-45.12 36.58,-81.86 81.54,-81.86 44.96,0 81.53,36.71 81.53,81.83 0,45.12 -36.59,81.86 -81.53,81.86 z m 0,-134.82 a 53,53 0 1 0 52.78,53 53,53 0 0 0 -52.78,-53 z m -15.35,12 -6.61,4.1 17.79,33.05 -16.14,-0.2 v 8.24 h 29.67 z"
     inkscape:connector-curvature="0"
     style="fill:#941b80" />
  <path
     class="cls-2"
     d="m 336.23265,302.7576 -50.14999,-155 h 34.94 l 34.52999,109 h 0.43 l 35,-109 h 35.16 l -51.45,155 z"
     id="path19"
     inkscape:connector-curvature="0"
     style="fill:#941b80" />
  <path
     class="cls-2"
     d="m 681.05265,147.7576 a 49.62,49.62 0 0 1 18.76,3.37 43.24,43.24 0 0 1 14.27,9.22 40.22,40.22 0 0 1 9.08,13.57 43.88,43.88 0 0 1 3.13,16.61 q 0,13.68 -5.73,23.66 -5.73,9.98 -18.75,15.2 v -0.09 a 26,26 0 0 1 10.37,5.4 29.52,29.52 0 0 1 6.7,8.52 39.88,39.88 0 0 1 3.78,10.83 95.55,95.55 0 0 1 1.62,11.8 c 0.14,2.48 0.29,5.4 0.43,8.75 0.14,3.35 0.4,6.78 0.76,10.27 a 68.49,68.49 0 0 0 1.73,9.95 22.85,22.85 0 0 0 3.56,8 h -33.95 a 61.4,61.4 0 0 1 -3.46,-17.71 q -0.65,-10.28 -1.94,-19.67 -1.74,-12.26 -7.35,-17.93 -5.61,-5.67 -18.36,-5.69 h -33.89 v 61 h -34 v -155 z m -11.59,70 q 11.82,0 17.73,-5.25 5.91,-5.25 5.91,-17.08 0,-11.37 -5.91,-16.52 -5.91,-5.15 -17.73,-5.15 h -37.65 v 44 z"
     id="path21"
     inkscape:connector-curvature="0"
     style="fill:#941b80" />
  <path
     class="cls-1"
     d="M 265.81266,4.7576023 V 44.757602 h 43 V 4.7576023 h 22.99999 V 109.7576 H 308.81266 V 63.757602 h -43 V 109.7576 h -23 V 4.7576023 Z"
     id="path8"
     inkscape:connector-curvature="0"
     style="isolation:isolate;fill:#e6bfd9" />
</svg>
